<!DOCTYPE svg PUBLIC "-//W3C//DTD SVG 1.1//EN"
 "http://www.w3.org/Graphics/SVG/1.1/DTD/svg11.dtd">
<svg version="1.1"
 width="600px" height="296px"
 viewBox="0 0 600 296"
 xmlns="http://www.w3.org/2000/svg" shape-rendering="crispEdges"
 stroke-width="1" text-rendering="geometricPrecision">
<polygon fill="white" points="133,7 165,7 165,16 133,16"/>
<text x="150" y="16" textLength="31" font-family="Helvetica" font-size="12" fill="black" text-anchor="middle">

Client
</text>
<polygon fill="white" points="431,7 467,7 467,16 431,16"/>
<text x="450" y="16" textLength="35" font-family="Helvetica" font-size="12" fill="black" text-anchor="middle">

Server
</text>
<line x1="150" y1="22" x2="150" y2="58" stroke="black"/>
<line x1="450" y1="22" x2="450" y2="58" stroke="black"/>
<line x1="150" y1="33" x2="450" y2="41" stroke="black"/>
<polygon fill="black" points="450,41 440,47 440,35"/>
<polygon fill="white" points="283,27 315,27 315,36 283,36"/>
<text x="284" y="36" textLength="30" font-family="Helvetica" font-size="12" fill="black">
data1
</text>
<line x1="150" y1="58" x2="150" y2="94" stroke="black"/>
<line x1="450" y1="58" x2="450" y2="94" stroke="black"/>
<line x1="150" y1="69" x2="375" y2="77" stroke="black"/>
<line x1="371" y1="73" x2="379" y2="81" stroke="black"/>
<line x1="379" y1="73" x2="371" y2="81" stroke="black"/>
<polygon fill="white" points="283,63 315,63 315,72 283,72"/>
<text x="284" y="72" textLength="30" font-family="Helvetica" font-size="12" fill="black">
data2
</text>
<line x1="150" y1="94" x2="150" y2="130" stroke="black"/>
<line x1="450" y1="94" x2="450" y2="130" stroke="black"/>
<line x1="150" y1="105" x2="450" y2="113" stroke="black"/>
<polygon fill="black" points="450,113 440,119 440,107"/>
<polygon fill="white" points="283,99 315,99 315,108 283,108"/>
<text x="284" y="108" textLength="30" font-family="Helvetica" font-size="12" fill="black">
data3
</text>
<line x1="150" y1="130" x2="150" y2="166" stroke="black"/>
<line x1="450" y1="130" x2="450" y2="166" stroke="black"/>
<line x1="450" y1="141" x2="150" y2="149" stroke="black"/>
<polygon fill="black" points="150,149 160,155 160,143"/>
<polygon fill="white" points="266,135 332,135 332,144 266,144"/>
<text x="267" y="144" textLength="64" font-family="Helvetica" font-size="12" fill="black">
ack1, nack2
</text>
<line x1="150" y1="166" x2="150" y2="202" stroke="black"/>
<line x1="450" y1="166" x2="450" y2="202" stroke="black"/>
<line x1="150" y1="177" x2="450" y2="215" stroke="black"/>
<polygon fill="black" points="450,215 440,221 440,209"/>
<polygon fill="white" points="283,186 315,186 315,195 283,195"/>
<text x="284" y="195" textLength="30" font-family="Helvetica" font-size="12" fill="black">
data2
</text>
<line x1="150" y1="202" x2="150" y2="227" stroke="black"/>
<line x1="450" y1="202" x2="450" y2="227" stroke="black"/>
<line x1="150" y1="227" x2="150" y2="263" stroke="black"/>
<line x1="450" y1="227" x2="450" y2="263" stroke="black"/>
<line x1="450" y1="238" x2="150" y2="246" stroke="black"/>
<polygon fill="black" points="150,246 160,252 160,240"/>
<polygon fill="white" points="286,232 313,232 313,241 286,241"/>
<text x="287" y="241" textLength="25" font-family="Helvetica" font-size="12" fill="black">
ack3
</text>
<line x1="150" y1="263" x2="150" y2="288" stroke="black"/>
<line x1="450" y1="263" x2="450" y2="288" stroke="black"/>
<line x1="150" y1="274" x2="150" y2="296" stroke="black"/>
<line x1="450" y1="274" x2="450" y2="296" stroke="black"/>
</svg>
