<?xml version="1.0" encoding="UTF-8" standalone="yes"?><svg xmlns="http://www.w3.org/2000/svg" xmlns:xlink="http://www.w3.org/1999/xlink" height="250px" style="width:191px;height:250px;" version="1.1" viewBox="0 0 191 250" width="191px"><defs><filter height="300%" id="f1" width="300%" x="-1" y="-1"><feGaussianBlur result="blurOut" stdDeviation="2.0"/><feColorMatrix in="blurOut" result="blurOut2" type="matrix" values="0 0 0 0 0 0 0 0 0 0 0 0 0 0 0 0 0 0 .4 0"/><feOffset dx="4.0" dy="4.0" in="blurOut2" result="blurOut3"/><feBlend in="SourceGraphic" in2="blurOut3" mode="normal"/></filter></defs><g><rect fill="#FEFECE" filter="url(#f1)" height="99.5195" style="stroke: #A80036; stroke-width: 1.5;" width="176" x="6" y="8"/><ellipse cx="75.75" cy="24" fill="#ADD1B2" rx="11" ry="11" style="stroke: #A80036; stroke-width: 1.0;"/><path d="M74.3281,29.3594 Q72.4688,29.3594 71.375,27.9688 Q70.2813,26.5781 70.2813,23.5938 Q70.2813,21.0625 71.4453,19.4063 Q72.6094,17.75 74.5938,17.75 Q76.0625,17.75 76.5313,17.9141 Q77,18.0781 77,18.0781 Q77,18.0781 77,18.0078 Q77,17.9375 77.6094,17.0156 L78.6563,20.6719 L77.3281,21.0781 Q76.8594,19.5313 76.1953,18.8672 Q75.5313,18.2031 74.4688,18.2031 Q74.0781,18.2031 73.3125,19.7344 Q72.5469,21.2656 72.5469,23.5156 Q72.5469,25.9844 73.2109,27.375 Q73.875,28.7656 74.4063,28.7656 Q75.4688,28.7656 76.2266,28 Q76.9844,27.2344 77.3281,25.5781 L78.6563,26.1719 Q78.3281,27.5781 77.4297,28.4688 Q76.5313,29.3594 74.3281,29.3594 Z "/><text fill="#000000" font-family="Consolas" font-size="12" lengthAdjust="spacingAndGlyphs" textLength="28" x="96.25" y="28.9629">Base</text><line style="stroke: #A80036; stroke-width: 1.5;" x1="7" x2="181" y1="40" y2="40"/><rect fill="none" height="6" style="stroke: #C82930; stroke-width: 1.0;" width="6" x="14" y="48.9399"/><text fill="#000000" font-family="Consolas" font-size="11" lengthAdjust="spacingAndGlyphs" textLength="66" x="26" y="54.9893">m_mem : int</text><line style="stroke: #A80036; stroke-width: 1.5;" x1="7" x2="181" y1="60.8799" y2="60.8799"/><ellipse cx="17" cy="72.8198" fill="#84BE84" rx="3" ry="3" style="stroke: #038048; stroke-width: 1.0;"/><text fill="#000000" font-family="Consolas" font-size="11" lengthAdjust="spacingAndGlyphs" textLength="108" x="26" y="75.8691">funcA(void) : void</text><ellipse cx="17" cy="85.6997" fill="#84BE84" rx="3" ry="3" style="stroke: #038048; stroke-width: 1.0;"/><text fill="#000000" font-family="Consolas" font-size="11" lengthAdjust="spacingAndGlyphs" textLength="138" x="26" y="88.749">funcB(int, void*) : int</text><rect fill="#F24D5C" height="6" style="stroke: #C82930; stroke-width: 1.0;" width="6" x="14" y="95.5796"/><text fill="#000000" font-family="Consolas" font-size="11" font-style="italic" lengthAdjust="spacingAndGlyphs" textLength="150" x="26" y="101.6289">func_abstract(int) : void</text><rect fill="#FEFECE" filter="url(#f1)" height="73.7598" style="stroke: #A80036; stroke-width: 1.5;" width="134" x="27" y="168"/><ellipse cx="69" cy="184" fill="#ADD1B2" rx="11" ry="11" style="stroke: #A80036; stroke-width: 1.0;"/><path d="M67.5781,189.3594 Q65.7188,189.3594 64.625,187.9688 Q63.5313,186.5781 63.5313,183.5938 Q63.5313,181.0625 64.6953,179.4063 Q65.8594,177.75 67.8438,177.75 Q69.3125,177.75 69.7813,177.9141 Q70.25,178.0781 70.25,178.0781 Q70.25,178.0781 70.25,178.0078 Q70.25,177.9375 70.8594,177.0156 L71.9063,180.6719 L70.5781,181.0781 Q70.1094,179.5313 69.4453,178.8672 Q68.7813,178.2031 67.7188,178.2031 Q67.3281,178.2031 66.5625,179.7344 Q65.7969,181.2656 65.7969,183.5156 Q65.7969,185.9844 66.4609,187.375 Q67.125,188.7656 67.6563,188.7656 Q68.7188,188.7656 69.4766,188 Q70.2344,187.2344 70.5781,185.5781 L71.9063,186.1719 Q71.5781,187.5781 70.6797,188.4688 Q69.7813,189.3594 67.5781,189.3594 Z "/><text fill="#000000" font-family="Consolas" font-size="12" lengthAdjust="spacingAndGlyphs" textLength="42" x="89" y="188.9629">Derive</text><line style="stroke: #A80036; stroke-width: 1.5;" x1="28" x2="160" y1="200" y2="200"/><ellipse cx="38" cy="211.9399" fill="none" rx="3" ry="3" style="stroke: #038048; stroke-width: 1.0;"/><text fill="#000000" font-family="Consolas" font-size="11" lengthAdjust="spacingAndGlyphs" textLength="66" x="47" y="214.9893">m_mem : int</text><line style="stroke: #A80036; stroke-width: 1.5;" x1="28" x2="160" y1="220.8799" y2="220.8799"/><ellipse cx="38" cy="232.8198" fill="#84BE84" rx="3" ry="3" style="stroke: #038048; stroke-width: 1.0;"/><text fill="#000000" font-family="Consolas" font-size="11" lengthAdjust="spacingAndGlyphs" textLength="108" x="47" y="235.8691">funcB(void) : void</text><path d="M94,128.409 C94,142.0355 94,155.8079 94,167.7961 " fill="none" style="stroke: #A80036; stroke-width: 1.0;"/><polygon fill="none" points="87.0001,128.09,94,108.09,101.0001,128.09,87.0001,128.09" style="stroke: #A80036; stroke-width: 1.0;"/></g></svg>