<?xml version="1.0" encoding="UTF-8" standalone="no"?>
<!DOCTYPE svg PUBLIC "-//W3C//DTD SVG 1.1//EN"
 "http://www.w3.org/Graphics/SVG/1.1/DTD/svg11.dtd">
<!-- Generated by graphviz version 2.38.0 (20140413.2041)
 -->
<!-- Title: vertex_classification Pages: 1 -->
<svg width="454pt" height="307pt"
 viewBox="0.00 0.00 454.00 307.00" xmlns="http://www.w3.org/2000/svg" xmlns:xlink="http://www.w3.org/1999/xlink">
<g id="graph0" class="graph" transform="scale(1 1) rotate(0) translate(4 303)">
<title>vertex_classification</title>
<polygon fill="white" stroke="none" points="-4,4 -4,-303 450,-303 450,4 -4,4"/>
<!-- mv -->
<g id="node1" class="node"><title>mv</title>
<path fill="#338833" stroke="#338833" d="M81.3333,-161C81.3333,-161 7.66667,-161 7.66667,-161 3.83333,-161 0,-157.167 0,-153.333 0,-153.333 0,-145.667 0,-145.667 0,-141.833 3.83333,-138 7.66667,-138 7.66667,-138 81.3333,-138 81.3333,-138 85.1667,-138 89,-141.833 89,-145.667 89,-145.667 89,-153.333 89,-153.333 89,-157.167 85.1667,-161 81.3333,-161"/>
<text text-anchor="middle" x="44.5" y="-145.8" font-family="Times New Roman,serif" font-size="14.00">model vertex</text>
</g>
<!-- pmv -->
<g id="node2" class="node"><title>pmv</title>
<ellipse fill="black" stroke="black" cx="124.5" cy="-149.5" rx="0" ry="0"/>
</g>
<!-- mv&#45;&gt;pmv -->
<g id="edge1" class="edge"><title>mv&#45;&gt;pmv</title>
<path fill="none" stroke="black" d="M89.1875,-149.5C100.866,-149.5 112.545,-149.5 124.224,-149.5"/>
</g>
<!-- pc1l -->
<g id="node9" class="node"><title>pc1l</title>
<ellipse fill="black" stroke="black" cx="124.5" cy="-60" rx="0" ry="0"/>
</g>
<!-- pmv&#45;&gt;pc1l -->
<g id="edge13" class="edge"><title>pmv&#45;&gt;pc1l</title>
<path fill="none" stroke="black" d="M124.5,-148.437C124.5,-145.828 124.5,-63.6295 124.5,-61.0615"/>
</g>
<!-- pc0l -->
<g id="node3" class="node"><title>pc0l</title>
<ellipse fill="black" stroke="black" cx="126.5" cy="-239" rx="0" ry="0"/>
</g>
<!-- pc0l&#45;&gt;pmv -->
<g id="edge12" class="edge"><title>pc0l&#45;&gt;pmv</title>
<path fill="none" stroke="black" d="M126.499,-237.937C126.439,-235.328 124.56,-153.13 124.501,-150.561"/>
</g>
<!-- pc0r -->
<g id="node4" class="node"><title>pc0r</title>
<ellipse fill="black" stroke="black" cx="266.5" cy="-239" rx="0" ry="0"/>
</g>
<!-- pc0l&#45;&gt;pc0r -->
<g id="edge2" class="edge"><title>pc0l&#45;&gt;pc0r</title>
<path fill="none" stroke="black" d="M126.601,-239C130.775,-239 262.293,-239 266.402,-239"/>
<text text-anchor="middle" x="196.5" y="-245.8" font-family="Times New Roman,serif" font-size="14.00">classify by movement</text>
</g>
<!-- pbs -->
<g id="node7" class="node"><title>pbs</title>
<ellipse fill="black" stroke="black" cx="266.5" cy="-190.5" rx="0" ry="0"/>
</g>
<!-- pc0r&#45;&gt;pbs -->
<g id="edge6" class="edge"><title>pc0r&#45;&gt;pbs</title>
<path fill="none" stroke="black" d="M266.5,-237.867C266.5,-235.224 266.5,-194.187 266.5,-191.625"/>
</g>
<!-- pfs -->
<g id="node5" class="node"><title>pfs</title>
<ellipse fill="black" stroke="black" cx="266.5" cy="-287.5" rx="0" ry="0"/>
</g>
<!-- pfs&#45;&gt;pc0r -->
<g id="edge5" class="edge"><title>pfs&#45;&gt;pc0r</title>
<path fill="none" stroke="black" d="M266.5,-286.367C266.5,-283.724 266.5,-242.687 266.5,-240.125"/>
</g>
<!-- fsv -->
<g id="node6" class="node"><title>fsv</title>
<path fill="cyan" stroke="cyan" d="M401.333,-299C401.333,-299 309.667,-299 309.667,-299 305.833,-299 302,-295.167 302,-291.333 302,-291.333 302,-283.667 302,-283.667 302,-279.833 305.833,-276 309.667,-276 309.667,-276 401.333,-276 401.333,-276 405.167,-276 409,-279.833 409,-283.667 409,-283.667 409,-291.333 409,-291.333 409,-295.167 405.167,-299 401.333,-299"/>
<text text-anchor="middle" x="355.5" y="-283.8" font-family="Times New Roman,serif" font-size="14.00">front side vertex</text>
</g>
<!-- pfs&#45;&gt;fsv -->
<g id="edge3" class="edge"><title>pfs&#45;&gt;fsv</title>
<path fill="none" stroke="black" d="M266.848,-287.5C278.506,-287.5 290.165,-287.5 301.824,-287.5"/>
</g>
<!-- bsv -->
<g id="node8" class="node"><title>bsv</title>
<path fill="cyan" stroke="cyan" d="M402.333,-202C402.333,-202 310.667,-202 310.667,-202 306.833,-202 303,-198.167 303,-194.333 303,-194.333 303,-186.667 303,-186.667 303,-182.833 306.833,-179 310.667,-179 310.667,-179 402.333,-179 402.333,-179 406.167,-179 410,-182.833 410,-186.667 410,-186.667 410,-194.333 410,-194.333 410,-198.167 406.167,-202 402.333,-202"/>
<text text-anchor="middle" x="356.5" y="-186.8" font-family="Times New Roman,serif" font-size="14.00">back side vertex</text>
</g>
<!-- pbs&#45;&gt;bsv -->
<g id="edge4" class="edge"><title>pbs&#45;&gt;bsv</title>
<path fill="none" stroke="black" d="M266.852,-190.5C278.875,-190.5 290.898,-190.5 302.921,-190.5"/>
</g>
<!-- tuv -->
<g id="node12" class="node"><title>tuv</title>
<path fill="#883333" stroke="#883333" d="M386.833,-120C386.833,-120 328.167,-120 328.167,-120 324.333,-120 320.5,-116.167 320.5,-112.333 320.5,-112.333 320.5,-104.667 320.5,-104.667 320.5,-100.833 324.333,-97 328.167,-97 328.167,-97 386.833,-97 386.833,-97 390.667,-97 394.5,-100.833 394.5,-104.667 394.5,-104.667 394.5,-112.333 394.5,-112.333 394.5,-116.167 390.667,-120 386.833,-120"/>
<text text-anchor="middle" x="357.5" y="-104.8" font-family="Times New Roman,serif" font-size="14.00">front head</text>
</g>
<!-- bsv&#45;&gt;tuv -->
<!-- pc1r -->
<g id="node10" class="node"><title>pc1r</title>
<ellipse fill="black" stroke="black" cx="285.5" cy="-60" rx="0" ry="0"/>
</g>
<!-- pc1l&#45;&gt;pc1r -->
<g id="edge7" class="edge"><title>pc1l&#45;&gt;pc1r</title>
<path fill="none" stroke="black" d="M124.617,-60C129.416,-60 280.662,-60 285.387,-60"/>
<text text-anchor="middle" x="205" y="-66.8" font-family="Times New Roman,serif" font-size="14.00">classify by texture update</text>
</g>
<!-- ptnu -->
<g id="node13" class="node"><title>ptnu</title>
<ellipse fill="black" stroke="black" cx="285.5" cy="-11.5" rx="0" ry="0"/>
</g>
<!-- pc1r&#45;&gt;ptnu -->
<g id="edge11" class="edge"><title>pc1r&#45;&gt;ptnu</title>
<path fill="none" stroke="black" d="M285.5,-58.8666C285.5,-56.2244 285.5,-15.1875 285.5,-12.6253"/>
</g>
<!-- ptu -->
<g id="node11" class="node"><title>ptu</title>
<ellipse fill="black" stroke="black" cx="284.5" cy="-108.5" rx="0" ry="0"/>
</g>
<!-- ptu&#45;&gt;pc1r -->
<g id="edge10" class="edge"><title>ptu&#45;&gt;pc1r</title>
<path fill="none" stroke="black" d="M284.503,-107.367C284.56,-104.724 285.442,-63.6875 285.497,-61.1253"/>
</g>
<!-- ptu&#45;&gt;tuv -->
<g id="edge8" class="edge"><title>ptu&#45;&gt;tuv</title>
<path fill="none" stroke="black" d="M284.785,-108.5C296.62,-108.5 308.455,-108.5 320.29,-108.5"/>
</g>
<!-- tnuv -->
<g id="node14" class="node"><title>tnuv</title>
<path fill="#883333" stroke="#883333" d="M438.333,-23C438.333,-23 328.667,-23 328.667,-23 324.833,-23 321,-19.1667 321,-15.3333 321,-15.3333 321,-7.66667 321,-7.66667 321,-3.83333 324.833,-0 328.667,-0 328.667,-0 438.333,-0 438.333,-0 442.167,-0 446,-3.83333 446,-7.66667 446,-7.66667 446,-15.3333 446,-15.3333 446,-19.1667 442.167,-23 438.333,-23"/>
<text text-anchor="middle" x="383.5" y="-7.8" font-family="Times New Roman,serif" font-size="14.00">back head, ear, hair</text>
</g>
<!-- ptnu&#45;&gt;tnuv -->
<g id="edge9" class="edge"><title>ptnu&#45;&gt;tnuv</title>
<path fill="none" stroke="black" d="M285.883,-11.5C297.577,-11.5 309.27,-11.5 320.964,-11.5"/>
</g>
</g>
</svg>
